<svg width="149" height="37" viewBox="0 0 149 37" fill="none" xmlns="http://www.w3.org/2000/svg">
<path d="M8 0.5H141C145.142 0.5 148.5 3.85786 148.5 8V29C148.5 33.1421 145.142 36.5 141 36.5H8C3.85786 36.5 0.5 33.1421 0.5 29V8C0.5 3.85786 3.85786 0.5 8 0.5Z" fill="#1F2A37"/>
<path fill-rule="evenodd" clip-rule="evenodd" d="M16.8 12.1C16.5878 12.1 16.3843 12.1843 16.2343 12.3343C16.0843 12.4843 16 12.6878 16 12.9V13.7H15.2C14.7757 13.7 14.3687 13.8686 14.0686 14.1686C13.7686 14.4687 13.6 14.8757 13.6 15.3V23.3C13.6 23.7243 13.7686 24.1313 14.0686 24.4314C14.3687 24.7314 14.7757 24.9 15.2 24.9H24.8C25.2244 24.9 25.6313 24.7314 25.9314 24.4314C26.2314 24.1313 26.4 23.7243 26.4 23.3V15.3C26.4 14.8757 26.2314 14.4687 25.9314 14.1686C25.6313 13.8686 25.2244 13.7 24.8 13.7H24V12.9C24 12.6878 23.9157 12.4843 23.7657 12.3343C23.6157 12.1843 23.4122 12.1 23.2 12.1C22.9878 12.1 22.7843 12.1843 22.6343 12.3343C22.4843 12.4843 22.4 12.6878 22.4 12.9V13.7H17.6V12.9C17.6 12.6878 17.5157 12.4843 17.3657 12.3343C17.2157 12.1843 17.0122 12.1 16.8 12.1V12.1ZM16.8 16.1C16.5878 16.1 16.3843 16.1843 16.2343 16.3343C16.0843 16.4843 16 16.6878 16 16.9C16 17.1122 16.0843 17.3157 16.2343 17.4657C16.3843 17.6157 16.5878 17.7 16.8 17.7H23.2C23.4122 17.7 23.6157 17.6157 23.7657 17.4657C23.9157 17.3157 24 17.1122 24 16.9C24 16.6878 23.9157 16.4843 23.7657 16.3343C23.6157 16.1843 23.4122 16.1 23.2 16.1H16.8Z" fill="white"/>
<path d="M42.6719 16.4929C42.6188 16.0223 42.4001 15.6577 42.0156 15.3991C41.6312 15.1373 41.1473 15.0064 40.5639 15.0064C40.1463 15.0064 39.785 15.0727 39.4801 15.2053C39.1752 15.3345 38.9382 15.5135 38.7692 15.7422C38.6035 15.9676 38.5206 16.2244 38.5206 16.5128C38.5206 16.7547 38.5769 16.9635 38.6896 17.1392C38.8056 17.3149 38.9564 17.4624 39.142 17.5817C39.331 17.6977 39.5331 17.7955 39.7486 17.875C39.964 17.9512 40.1712 18.0142 40.37 18.0639L41.3643 18.3224C41.6892 18.402 42.0223 18.5097 42.3636 18.6456C42.705 18.7815 43.0215 18.9605 43.3132 19.1825C43.6049 19.4046 43.8402 19.6797 44.0192 20.0078C44.2015 20.3359 44.2926 20.7287 44.2926 21.1861C44.2926 21.7628 44.1435 22.2749 43.8452 22.7223C43.5502 23.1697 43.121 23.5227 42.5575 23.7812C41.9974 24.0398 41.3196 24.169 40.5241 24.169C39.7618 24.169 39.1023 24.0481 38.5455 23.8061C37.9886 23.5642 37.5528 23.2211 37.2379 22.777C36.9231 22.3295 36.7491 21.7992 36.7159 21.1861H38.2571C38.2869 21.554 38.4063 21.8606 38.6151 22.1058C38.8272 22.3478 39.0973 22.5284 39.4254 22.6477C39.7569 22.7637 40.1198 22.8217 40.5142 22.8217C40.9484 22.8217 41.3345 22.7538 41.6726 22.6179C42.014 22.4787 42.2824 22.2865 42.478 22.0412C42.6735 21.7926 42.7713 21.5026 42.7713 21.1712C42.7713 20.8696 42.6851 20.6226 42.5128 20.4304C42.3438 20.2382 42.1134 20.0791 41.8217 19.9531C41.5334 19.8272 41.2069 19.7161 40.8423 19.62L39.6392 19.2919C38.8239 19.0698 38.1776 18.7434 37.7003 18.3125C37.2263 17.8816 36.9893 17.3116 36.9893 16.6023C36.9893 16.0156 37.1484 15.5036 37.4666 15.0661C37.7848 14.6286 38.2157 14.2888 38.7592 14.0469C39.3028 13.8016 39.916 13.679 40.5987 13.679C41.2881 13.679 41.8963 13.8 42.4233 14.0419C42.9536 14.2839 43.3712 14.617 43.6761 15.0412C43.9811 15.4621 44.1402 15.946 44.1534 16.4929H42.6719ZM49.2257 24.1541C48.4866 24.1541 47.8502 23.9867 47.3166 23.652C46.7863 23.3139 46.3786 22.8482 46.0936 22.255C45.8085 21.6617 45.666 20.9822 45.666 20.2166C45.666 19.4411 45.8118 18.7566 46.1035 18.1634C46.3952 17.5668 46.8062 17.1011 47.3365 16.7663C47.8668 16.4316 48.4915 16.2642 49.2108 16.2642C49.7908 16.2642 50.3078 16.3719 50.7619 16.5874C51.216 16.7995 51.5822 17.0978 51.8606 17.4822C52.1423 17.8667 52.3097 18.3158 52.3627 18.8295H50.916C50.8365 18.4716 50.6542 18.1634 50.3691 17.9048C50.0874 17.6463 49.7096 17.517 49.2356 17.517C48.8213 17.517 48.4584 17.6264 48.1468 17.8452C47.8386 18.0606 47.5983 18.3688 47.426 18.7699C47.2536 19.1676 47.1674 19.6383 47.1674 20.1818C47.1674 20.7386 47.252 21.2192 47.421 21.6236C47.59 22.0279 47.8287 22.3411 48.1369 22.5632C48.4484 22.7853 48.8147 22.8963 49.2356 22.8963C49.5173 22.8963 49.7725 22.8449 50.0012 22.7422C50.2333 22.6361 50.4271 22.4853 50.5829 22.2898C50.742 22.0942 50.853 21.8589 50.916 21.5838H52.3627C52.3097 22.0777 52.149 22.5185 51.8805 22.9062C51.612 23.294 51.2524 23.599 50.8017 23.821C50.3542 24.0431 49.8289 24.1541 49.2257 24.1541ZM55.4389 19.4659V24H53.9524V13.8182H55.419V17.6065H55.5135C55.6925 17.1955 55.9659 16.8691 56.3338 16.6271C56.7017 16.3852 57.1823 16.2642 57.7756 16.2642C58.2992 16.2642 58.7566 16.3719 59.1477 16.5874C59.5421 16.8028 59.8471 17.1243 60.0625 17.5518C60.2812 17.9761 60.3906 18.5064 60.3906 19.1428V24H58.9041V19.3217C58.9041 18.7616 58.7599 18.3274 58.4716 18.0192C58.1832 17.7076 57.7822 17.5518 57.2685 17.5518C56.9171 17.5518 56.6023 17.6264 56.3239 17.7756C56.0488 17.9247 55.8317 18.1435 55.6726 18.4318C55.5168 18.7169 55.4389 19.0616 55.4389 19.4659ZM65.6655 24.1541C64.9131 24.1541 64.2652 23.9934 63.7216 23.6719C63.1813 23.3471 62.7637 22.8913 62.4688 22.3047C62.1771 21.7147 62.0312 21.0237 62.0312 20.2315C62.0312 19.4493 62.1771 18.7599 62.4688 18.1634C62.7637 17.5668 63.1747 17.1011 63.7017 16.7663C64.232 16.4316 64.8518 16.2642 65.5611 16.2642C65.992 16.2642 66.4096 16.3355 66.8139 16.478C67.2183 16.6205 67.5812 16.8442 67.9027 17.1491C68.2242 17.4541 68.4777 17.8501 68.6634 18.3374C68.849 18.8213 68.9418 19.4096 68.9418 20.1023V20.6293H62.8714V19.5156H67.4851C67.4851 19.1245 67.4055 18.7782 67.2464 18.4766C67.0874 18.1716 66.8636 17.9313 66.5753 17.7557C66.2902 17.58 65.9555 17.4922 65.571 17.4922C65.1534 17.4922 64.7888 17.5949 64.4773 17.8004C64.169 18.0026 63.9304 18.2678 63.7614 18.5959C63.5956 18.9207 63.5128 19.2737 63.5128 19.6548V20.5249C63.5128 21.0353 63.6023 21.4695 63.7812 21.8274C63.9635 22.1854 64.2171 22.4588 64.5419 22.6477C64.8667 22.8333 65.2462 22.9261 65.6804 22.9261C65.9621 22.9261 66.219 22.8864 66.451 22.8068C66.683 22.724 66.8835 22.6013 67.0526 22.4389C67.2216 22.2765 67.3509 22.076 67.4403 21.8374L68.8473 22.0909C68.7346 22.5052 68.5324 22.8681 68.2408 23.1797C67.9524 23.4879 67.5895 23.7282 67.152 23.9006C66.7178 24.0696 66.2223 24.1541 65.6655 24.1541ZM73.4498 24.1491C72.8333 24.1491 72.2831 23.9917 71.7992 23.6768C71.3186 23.3587 70.9408 22.9062 70.6657 22.3196C70.3939 21.7296 70.258 21.022 70.258 20.1967C70.258 19.3714 70.3955 18.6655 70.6706 18.0788C70.949 17.4922 71.3302 17.0431 71.8141 16.7315C72.298 16.42 72.8465 16.2642 73.4597 16.2642C73.9337 16.2642 74.3148 16.3438 74.6032 16.5028C74.8948 16.6586 75.1202 16.8409 75.2793 17.0497C75.4417 17.2585 75.5676 17.4425 75.6571 17.6016H75.7466V13.8182H77.2331V24H75.7814V22.8118H75.6571C75.5676 22.9742 75.4384 23.1598 75.2694 23.3686C75.1036 23.5774 74.8749 23.7597 74.5833 23.9155C74.2916 24.0713 73.9138 24.1491 73.4498 24.1491ZM73.7779 22.8814C74.2054 22.8814 74.5667 22.7687 74.8617 22.5433C75.16 22.3146 75.3854 21.9981 75.5378 21.5938C75.6936 21.1894 75.7715 20.7187 75.7715 20.1818C75.7715 19.6515 75.6953 19.1875 75.5428 18.7898C75.3903 18.392 75.1666 18.0821 74.8716 17.8601C74.5766 17.638 74.2121 17.527 73.7779 17.527C73.3304 17.527 72.9576 17.643 72.6593 17.875C72.361 18.107 72.1356 18.4235 71.9831 18.8246C71.834 19.2256 71.7594 19.678 71.7594 20.1818C71.7594 20.6922 71.8356 21.1513 71.9881 21.5589C72.1406 21.9666 72.3659 22.2898 72.6642 22.5284C72.9658 22.7637 73.3371 22.8814 73.7779 22.8814ZM84.1921 20.8331V16.3636H85.6836V24H84.2219V22.6776H84.1424C83.9667 23.0852 83.685 23.425 83.2972 23.6967C82.9128 23.9652 82.4338 24.0994 81.8604 24.0994C81.3699 24.0994 80.9357 23.9917 80.5579 23.7763C80.1834 23.5575 79.8884 23.2344 79.6729 22.8068C79.4608 22.3793 79.3548 21.8506 79.3548 21.2209V16.3636H80.8413V21.0419C80.8413 21.5623 80.9854 21.9766 81.2738 22.2848C81.5621 22.593 81.9367 22.7472 82.3974 22.7472C82.6758 22.7472 82.9525 22.6776 83.2276 22.5384C83.506 22.3991 83.7364 22.1887 83.9187 21.907C84.1043 21.6252 84.1954 21.2673 84.1921 20.8331ZM89.1674 13.8182V24H87.6809V13.8182H89.1674ZM94.4585 24.1541C93.7061 24.1541 93.0581 23.9934 92.5146 23.6719C91.9743 23.3471 91.5567 22.8913 91.2617 22.3047C90.9701 21.7147 90.8242 21.0237 90.8242 20.2315C90.8242 19.4493 90.9701 18.7599 91.2617 18.1634C91.5567 17.5668 91.9677 17.1011 92.4947 16.7663C93.025 16.4316 93.6448 16.2642 94.354 16.2642C94.7849 16.2642 95.2025 16.3355 95.6069 16.478C96.0112 16.6205 96.3742 16.8442 96.6957 17.1491C97.0172 17.4541 97.2707 17.8501 97.4563 18.3374C97.6419 18.8213 97.7347 19.4096 97.7347 20.1023V20.6293H91.6644V19.5156H96.2781C96.2781 19.1245 96.1985 18.7782 96.0394 18.4766C95.8803 18.1716 95.6566 17.9313 95.3683 17.7557C95.0832 17.58 94.7485 17.4922 94.364 17.4922C93.9464 17.4922 93.5818 17.5949 93.2702 17.8004C92.962 18.0026 92.7234 18.2678 92.5543 18.5959C92.3886 18.9207 92.3058 19.2737 92.3058 19.6548V20.5249C92.3058 21.0353 92.3952 21.4695 92.5742 21.8274C92.7565 22.1854 93.0101 22.4588 93.3349 22.6477C93.6597 22.8333 94.0392 22.9261 94.4734 22.9261C94.7551 22.9261 95.012 22.8864 95.244 22.8068C95.476 22.724 95.6765 22.6013 95.8455 22.4389C96.0146 22.2765 96.1438 22.076 96.2333 21.8374L97.6403 22.0909C97.5276 22.5052 97.3254 22.8681 97.0337 23.1797C96.7454 23.4879 96.3825 23.7282 95.945 23.9006C95.5108 24.0696 95.0153 24.1541 94.4585 24.1541ZM105.311 24.169C104.828 24.169 104.39 24.0795 103.999 23.9006C103.608 23.7183 103.298 23.4548 103.069 23.1101C102.844 22.7654 102.731 22.3428 102.731 21.8423C102.731 21.4115 102.814 21.0568 102.98 20.7784C103.145 20.5 103.369 20.2796 103.651 20.1172C103.933 19.9548 104.248 19.8321 104.596 19.7493C104.944 19.6664 105.298 19.6035 105.659 19.5604C106.117 19.5073 106.488 19.4643 106.773 19.4311C107.058 19.3946 107.265 19.3366 107.395 19.2571C107.524 19.1776 107.588 19.0483 107.588 18.8693V18.8345C107.588 18.4003 107.466 18.0639 107.221 17.8253C106.979 17.5866 106.617 17.4673 106.137 17.4673C105.636 17.4673 105.242 17.5784 104.953 17.8004C104.668 18.0192 104.471 18.2628 104.362 18.5312L102.965 18.2131C103.131 17.7491 103.373 17.3745 103.691 17.0895C104.012 16.8011 104.382 16.5923 104.799 16.4631C105.217 16.3305 105.656 16.2642 106.117 16.2642C106.422 16.2642 106.745 16.3007 107.086 16.3736C107.431 16.4432 107.752 16.5724 108.051 16.7614C108.352 16.9503 108.599 17.2204 108.792 17.5717C108.984 17.9197 109.08 18.3722 109.08 18.929V24H107.628V22.956H107.569C107.472 23.1482 107.328 23.3371 107.136 23.5227C106.944 23.7083 106.697 23.8625 106.395 23.9851C106.094 24.1077 105.732 24.169 105.311 24.169ZM105.635 22.9759C106.046 22.9759 106.397 22.8946 106.689 22.7322C106.984 22.5698 107.207 22.3577 107.36 22.0959C107.516 21.8307 107.593 21.5473 107.593 21.2457V20.2614C107.54 20.3144 107.438 20.3641 107.285 20.4105C107.136 20.4536 106.965 20.4917 106.773 20.5249C106.581 20.5547 106.394 20.5829 106.211 20.6094C106.029 20.6326 105.877 20.6525 105.754 20.669C105.466 20.7055 105.202 20.7668 104.963 20.853C104.728 20.9392 104.539 21.0634 104.397 21.2259C104.257 21.3849 104.188 21.5971 104.188 21.8622C104.188 22.2301 104.324 22.5085 104.596 22.6974C104.867 22.883 105.214 22.9759 105.635 22.9759ZM117.982 24.1541C117.242 24.1541 116.606 23.9867 116.072 23.652C115.542 23.3139 115.134 22.8482 114.849 22.255C114.564 21.6617 114.422 20.9822 114.422 20.2166C114.422 19.4411 114.568 18.7566 114.859 18.1634C115.151 17.5668 115.562 17.1011 116.092 16.7663C116.623 16.4316 117.247 16.2642 117.967 16.2642C118.547 16.2642 119.064 16.3719 119.518 16.5874C119.972 16.7995 120.338 17.0978 120.616 17.4822C120.898 17.8667 121.066 18.3158 121.119 18.8295H119.672C119.592 18.4716 119.41 18.1634 119.125 17.9048C118.843 17.6463 118.465 17.517 117.991 17.517C117.577 17.517 117.214 17.6264 116.903 17.8452C116.594 18.0606 116.354 18.3688 116.182 18.7699C116.009 19.1676 115.923 19.6383 115.923 20.1818C115.923 20.7386 116.008 21.2192 116.177 21.6236C116.346 22.0279 116.585 22.3411 116.893 22.5632C117.204 22.7853 117.571 22.8963 117.991 22.8963C118.273 22.8963 118.528 22.8449 118.757 22.7422C118.989 22.6361 119.183 22.4853 119.339 22.2898C119.498 22.0942 119.609 21.8589 119.672 21.5838H121.119C121.066 22.0777 120.905 22.5185 120.636 22.9062C120.368 23.294 120.008 23.599 119.558 23.821C119.11 24.0431 118.585 24.1541 117.982 24.1541ZM124.931 24.169C124.447 24.169 124.009 24.0795 123.618 23.9006C123.227 23.7183 122.917 23.4548 122.688 23.1101C122.463 22.7654 122.35 22.3428 122.35 21.8423C122.35 21.4115 122.433 21.0568 122.599 20.7784C122.765 20.5 122.988 20.2796 123.27 20.1172C123.552 19.9548 123.867 19.8321 124.215 19.7493C124.563 19.6664 124.917 19.6035 125.279 19.5604C125.736 19.5073 126.107 19.4643 126.392 19.4311C126.677 19.3946 126.884 19.3366 127.014 19.2571C127.143 19.1776 127.208 19.0483 127.208 18.8693V18.8345C127.208 18.4003 127.085 18.0639 126.84 17.8253C126.598 17.5866 126.236 17.4673 125.756 17.4673C125.255 17.4673 124.861 17.5784 124.573 17.8004C124.288 18.0192 124.09 18.2628 123.981 18.5312L122.584 18.2131C122.75 17.7491 122.992 17.3745 123.31 17.0895C123.631 16.8011 124.001 16.5923 124.419 16.4631C124.836 16.3305 125.275 16.2642 125.736 16.2642C126.041 16.2642 126.364 16.3007 126.705 16.3736C127.05 16.4432 127.372 16.5724 127.67 16.7614C127.972 16.9503 128.218 17.2204 128.411 17.5717C128.603 17.9197 128.699 18.3722 128.699 18.929V24H127.247V22.956H127.188C127.092 23.1482 126.947 23.3371 126.755 23.5227C126.563 23.7083 126.316 23.8625 126.014 23.9851C125.713 24.1077 125.352 24.169 124.931 24.169ZM125.254 22.9759C125.665 22.9759 126.016 22.8946 126.308 22.7322C126.603 22.5698 126.826 22.3577 126.979 22.0959C127.135 21.8307 127.213 21.5473 127.213 21.2457V20.2614C127.16 20.3144 127.057 20.3641 126.904 20.4105C126.755 20.4536 126.584 20.4917 126.392 20.5249C126.2 20.5547 126.013 20.5829 125.83 20.6094C125.648 20.6326 125.496 20.6525 125.373 20.669C125.085 20.7055 124.821 20.7668 124.583 20.853C124.347 20.9392 124.158 21.0634 124.016 21.2259C123.877 21.3849 123.807 21.5971 123.807 21.8622C123.807 22.2301 123.943 22.5085 124.215 22.6974C124.486 22.883 124.833 22.9759 125.254 22.9759ZM132.165 13.8182V24H130.679V13.8182H132.165ZM135.652 13.8182V24H134.165V13.8182H135.652Z" fill="white"/>
<path d="M8 0.5H141C145.142 0.5 148.5 3.85786 148.5 8V29C148.5 33.1421 145.142 36.5 141 36.5H8C3.85786 36.5 0.5 33.1421 0.5 29V8C0.5 3.85786 3.85786 0.5 8 0.5Z" stroke="#9CA3AF"/>
</svg>
