<svg width="84" height="37" viewBox="0 0 84 37" fill="none" xmlns="http://www.w3.org/2000/svg">
<path d="M8 0.5H76C80.1421 0.5 83.5 3.85786 83.5 8V29C83.5 33.1421 80.1421 36.5 76 36.5H8C3.85786 36.5 0.5 33.1421 0.5 29V8C0.5 3.85786 3.85786 0.5 8 0.5Z" fill="#1F2A37"/>
<path d="M13.6024 15.2072L20 18.4056L26.3976 15.2072C26.3739 14.7996 26.1953 14.4164 25.8983 14.1362C25.6012 13.856 25.2083 13.6999 24.8 13.7H15.2C14.7917 13.6999 14.3988 13.856 14.1017 14.1362C13.8047 14.4164 13.6261 14.7996 13.6024 15.2072V15.2072Z" fill="#9CA3AF"/>
<path d="M26.4 16.9944L20 20.1944L13.6 16.9944V21.7C13.6 22.1243 13.7686 22.5313 14.0686 22.8314C14.3687 23.1314 14.7757 23.3 15.2 23.3H24.8C25.2244 23.3 25.6313 23.1314 25.9314 22.8314C26.2314 22.5313 26.4 22.1243 26.4 21.7V16.9944Z" fill="#9CA3AF"/>
<path d="M37.1186 24V13.8182H43.5021V15.1406H38.6548V18.2429H43.169V19.5604H38.6548V22.6776H43.5618V24H37.1186ZM45.4348 24V16.3636H46.8617V17.6065H46.9561C47.1152 17.1856 47.3754 16.8575 47.7367 16.6222C48.098 16.3835 48.5305 16.2642 49.0343 16.2642C49.5447 16.2642 49.9722 16.3835 50.3169 16.6222C50.665 16.8608 50.9218 17.1889 51.0875 17.6065H51.1671C51.3494 17.1989 51.6394 16.8741 52.0371 16.6321C52.4348 16.3868 52.9088 16.2642 53.459 16.2642C54.1517 16.2642 54.7168 16.4813 55.1543 16.9155C55.5951 17.3497 55.8155 18.0043 55.8155 18.8793V24H54.329V19.0185C54.329 18.5014 54.1882 18.1269 53.9064 17.8949C53.6247 17.6629 53.2883 17.5469 52.8972 17.5469C52.4133 17.5469 52.0371 17.696 51.7686 17.9943C51.5002 18.2893 51.3659 18.6688 51.3659 19.1328V24H49.8844V18.924C49.8844 18.5097 49.7551 18.1766 49.4966 17.9247C49.2381 17.6728 48.9017 17.5469 48.4874 17.5469C48.2057 17.5469 47.9455 17.6214 47.7069 17.7706C47.4715 17.9164 47.281 18.1203 47.1351 18.3821C46.9926 18.6439 46.9213 18.9472 46.9213 19.2919V24H45.4348ZM60.0302 24.169C59.5463 24.169 59.1088 24.0795 58.7177 23.9006C58.3266 23.7183 58.0167 23.4548 57.788 23.1101C57.5626 22.7654 57.4499 22.3428 57.4499 21.8423C57.4499 21.4115 57.5328 21.0568 57.6985 20.7784C57.8642 20.5 58.0879 20.2796 58.3697 20.1172C58.6514 19.9548 58.9663 19.8321 59.3143 19.7493C59.6623 19.6664 60.0169 19.6035 60.3782 19.5604C60.8356 19.5073 61.2068 19.4643 61.4918 19.4311C61.7769 19.3946 61.984 19.3366 62.1133 19.2571C62.2425 19.1776 62.3072 19.0483 62.3072 18.8693V18.8345C62.3072 18.4003 62.1845 18.0639 61.9393 17.8253C61.6973 17.5866 61.3361 17.4673 60.8555 17.4673C60.355 17.4673 59.9606 17.5784 59.6722 17.8004C59.3872 18.0192 59.19 18.2628 59.0806 18.5312L57.6836 18.2131C57.8493 17.7491 58.0913 17.3745 58.4094 17.0895C58.7309 16.8011 59.1005 16.5923 59.5181 16.4631C59.9357 16.3305 60.3749 16.2642 60.8356 16.2642C61.1405 16.2642 61.4637 16.3007 61.805 16.3736C62.1497 16.4432 62.4712 16.5724 62.7695 16.7614C63.0711 16.9503 63.3181 17.2204 63.5103 17.5717C63.7025 17.9197 63.7987 18.3722 63.7987 18.929V24H62.3469V22.956H62.2873C62.1912 23.1482 62.047 23.3371 61.8548 23.5227C61.6625 23.7083 61.4156 23.8625 61.114 23.9851C60.8124 24.1077 60.4511 24.169 60.0302 24.169ZM60.3533 22.9759C60.7643 22.9759 61.1156 22.8946 61.4073 22.7322C61.7023 22.5698 61.926 22.3577 62.0785 22.0959C62.2343 21.8307 62.3121 21.5473 62.3121 21.2457V20.2614C62.2591 20.3144 62.1564 20.3641 62.0039 20.4105C61.8548 20.4536 61.6841 20.4917 61.4918 20.5249C61.2996 20.5547 61.1123 20.5829 60.93 20.6094C60.7478 20.6326 60.5953 20.6525 60.4727 20.669C60.1843 20.7055 59.9208 20.7668 59.6822 20.853C59.4469 20.9392 59.2579 21.0634 59.1154 21.2259C58.9762 21.3849 58.9066 21.5971 58.9066 21.8622C58.9066 22.2301 59.0425 22.5085 59.3143 22.6974C59.5861 22.883 59.9324 22.9759 60.3533 22.9759ZM65.7786 24V16.3636H67.2651V24H65.7786ZM66.5293 15.1854C66.2708 15.1854 66.0487 15.0992 65.8631 14.9268C65.6808 14.7512 65.5897 14.5424 65.5897 14.3004C65.5897 14.0552 65.6808 13.8464 65.8631 13.674C66.0487 13.4983 66.2708 13.4105 66.5293 13.4105C66.7878 13.4105 67.0082 13.4983 67.1905 13.674C67.3761 13.8464 67.4689 14.0552 67.4689 14.3004C67.4689 14.5424 67.3761 14.7512 67.1905 14.9268C67.0082 15.0992 66.7878 15.1854 66.5293 15.1854ZM70.7514 13.8182V24H69.2649V13.8182H70.7514Z" fill="#9CA3AF"/>
<path d="M8 0.5H76C80.1421 0.5 83.5 3.85786 83.5 8V29C83.5 33.1421 80.1421 36.5 76 36.5H8C3.85786 36.5 0.5 33.1421 0.5 29V8C0.5 3.85786 3.85786 0.5 8 0.5Z" stroke="#4B5563"/>
</svg>
