<svg width="105" height="37" viewBox="0 0 105 37" fill="none" xmlns="http://www.w3.org/2000/svg">
<path d="M8 0.5H97C101.142 0.5 104.5 3.85786 104.5 8V29C104.5 33.1421 101.142 36.5 97 36.5H8C3.85786 36.5 0.5 33.1421 0.5 29V8C0.5 3.85786 3.85786 0.5 8 0.5Z" fill="#1F2A37"/>
<g clip-path="url(#clip0_1004_12707)">
<path d="M26.8156 10.5H13.1812C12.5281 10.5 12 11.0156 12 11.6531V25.3438C12 25.9813 12.5281 26.5 13.1812 26.5H26.8156C27.4688 26.5 28 25.9813 28 25.3469V11.6531C28 11.0156 27.4688 10.5 26.8156 10.5ZM16.7469 24.1344H14.3719V16.4969H16.7469V24.1344ZM15.5594 15.4563C14.7969 15.4563 14.1813 14.8406 14.1813 14.0812C14.1813 13.3219 14.7969 12.7062 15.5594 12.7062C16.3188 12.7062 16.9344 13.3219 16.9344 14.0812C16.9344 14.8375 16.3188 15.4563 15.5594 15.4563ZM25.6344 24.1344H23.2625V20.4219C23.2625 19.5375 23.2469 18.3969 22.0281 18.3969C20.7937 18.3969 20.6062 19.3625 20.6062 20.3594V24.1344H18.2375V16.4969H20.5125V17.5406H20.5437C20.8594 16.9406 21.6344 16.3063 22.7875 16.3063C25.1906 16.3063 25.6344 17.8875 25.6344 19.9438V24.1344V24.1344Z" fill="#9CA3AF"/>
</g>
<path d="M37.1186 24V13.8182H38.6548V22.6776H43.2685V24H37.1186ZM44.9016 24V16.3636H46.3881V24H44.9016ZM45.6523 15.1854C45.3938 15.1854 45.1718 15.0992 44.9862 14.9268C44.8039 14.7512 44.7127 14.5424 44.7127 14.3004C44.7127 14.0552 44.8039 13.8464 44.9862 13.674C45.1718 13.4983 45.3938 13.4105 45.6523 13.4105C45.9109 13.4105 46.1313 13.4983 46.3136 13.674C46.4992 13.8464 46.592 14.0552 46.592 14.3004C46.592 14.5424 46.4992 14.7512 46.3136 14.9268C46.1313 15.0992 45.9109 15.1854 45.6523 15.1854ZM49.8745 19.4659V24H48.388V16.3636H49.8148V17.6065H49.9093C50.0849 17.2022 50.36 16.8774 50.7346 16.6321C51.1124 16.3868 51.588 16.2642 52.1614 16.2642C52.6818 16.2642 53.1375 16.3736 53.5286 16.5923C53.9197 16.8078 54.223 17.1293 54.4384 17.5568C54.6538 17.9844 54.7615 18.513 54.7615 19.1428V24H53.275V19.3217C53.275 18.7682 53.1309 18.3357 52.8425 18.0241C52.5542 17.7093 52.1581 17.5518 51.6543 17.5518C51.3096 17.5518 51.003 17.6264 50.7346 17.7756C50.4694 17.9247 50.2589 18.1435 50.1032 18.4318C49.9507 18.7169 49.8745 19.0616 49.8745 19.4659ZM58.1223 21.4098L58.1124 19.5952H58.3709L61.4135 16.3636H63.1934L59.7232 20.0426H59.4895L58.1223 21.4098ZM56.7551 24V13.8182H58.2417V24H56.7551ZM61.5776 24L58.8432 20.3707L59.8674 19.3317L63.4022 24H61.5776ZM67.5249 24.1541C66.7725 24.1541 66.1245 23.9934 65.581 23.6719C65.0407 23.3471 64.6231 22.8913 64.3281 22.3047C64.0365 21.7147 63.8906 21.0237 63.8906 20.2315C63.8906 19.4493 64.0365 18.7599 64.3281 18.1634C64.6231 17.5668 65.0341 17.1011 65.5611 16.7663C66.0914 16.4316 66.7112 16.2642 67.4205 16.2642C67.8513 16.2642 68.2689 16.3355 68.6733 16.478C69.0777 16.6205 69.4406 16.8442 69.7621 17.1491C70.0836 17.4541 70.3371 17.8501 70.5227 18.3374C70.7083 18.8213 70.8011 19.4096 70.8011 20.1023V20.6293H64.7308V19.5156H69.3445C69.3445 19.1245 69.2649 18.7782 69.1058 18.4766C68.9467 18.1716 68.723 17.9313 68.4347 17.7557C68.1496 17.58 67.8149 17.4922 67.4304 17.4922C67.0128 17.4922 66.6482 17.5949 66.3366 17.8004C66.0284 18.0026 65.7898 18.2678 65.6207 18.5959C65.455 18.9207 65.3722 19.2737 65.3722 19.6548V20.5249C65.3722 21.0353 65.4616 21.4695 65.6406 21.8274C65.8229 22.1854 66.0765 22.4588 66.4013 22.6477C66.7261 22.8333 67.1056 22.9261 67.5398 22.9261C67.8215 22.9261 68.0784 22.8864 68.3104 22.8068C68.5424 22.724 68.7429 22.6013 68.9119 22.4389C69.081 22.2765 69.2102 22.076 69.2997 21.8374L70.7067 22.0909C70.594 22.5052 70.3918 22.8681 70.1001 23.1797C69.8118 23.4879 69.4489 23.7282 69.0114 23.9006C68.5772 24.0696 68.0817 24.1541 67.5249 24.1541ZM75.3091 24.1491C74.6926 24.1491 74.1425 23.9917 73.6586 23.6768C73.178 23.3587 72.8001 22.9062 72.525 22.3196C72.2533 21.7296 72.1174 21.022 72.1174 20.1967C72.1174 19.3714 72.2549 18.6655 72.53 18.0788C72.8084 17.4922 73.1896 17.0431 73.6735 16.7315C74.1574 16.42 74.7059 16.2642 75.3191 16.2642C75.793 16.2642 76.1742 16.3438 76.4625 16.5028C76.7542 16.6586 76.9796 16.8409 77.1387 17.0497C77.3011 17.2585 77.427 17.4425 77.5165 17.6016H77.606V13.8182H79.0925V24H77.6408V22.8118H77.5165C77.427 22.9742 77.2978 23.1598 77.1287 23.3686C76.963 23.5774 76.7343 23.7597 76.4426 23.9155C76.151 24.0713 75.7731 24.1491 75.3091 24.1491ZM75.6373 22.8814C76.0648 22.8814 76.4261 22.7687 76.7211 22.5433C77.0194 22.3146 77.2447 21.9981 77.3972 21.5938C77.553 21.1894 77.6309 20.7187 77.6309 20.1818C77.6309 19.6515 77.5546 19.1875 77.4022 18.7898C77.2497 18.392 77.026 18.0821 76.731 17.8601C76.436 17.638 76.0714 17.527 75.6373 17.527C75.1898 17.527 74.8169 17.643 74.5186 17.875C74.2203 18.107 73.995 18.4235 73.8425 18.8246C73.6934 19.2256 73.6188 19.678 73.6188 20.1818C73.6188 20.6922 73.695 21.1513 73.8475 21.5589C73.9999 21.9666 74.2253 22.2898 74.5236 22.5284C74.8252 22.7637 75.1964 22.8814 75.6373 22.8814ZM82.8697 13.8182V24H81.3335V13.8182H82.8697ZM86.4741 19.4659V24H84.9876V16.3636H86.4144V17.6065H86.5089C86.6845 17.2022 86.9596 16.8774 87.3342 16.6321C87.712 16.3868 88.1876 16.2642 88.761 16.2642C89.2814 16.2642 89.7371 16.3736 90.1282 16.5923C90.5193 16.8078 90.8226 17.1293 91.038 17.5568C91.2534 17.9844 91.3612 18.513 91.3612 19.1428V24H89.8746V19.3217C89.8746 18.7682 89.7305 18.3357 89.4421 18.0241C89.1538 17.7093 88.7577 17.5518 88.2539 17.5518C87.9092 17.5518 87.6026 17.6264 87.3342 17.7756C87.069 17.9247 86.8585 18.1435 86.7028 18.4318C86.5503 18.7169 86.4741 19.0616 86.4741 19.4659Z" fill="#9CA3AF"/>
<path d="M8 0.5H97C101.142 0.5 104.5 3.85786 104.5 8V29C104.5 33.1421 101.142 36.5 97 36.5H8C3.85786 36.5 0.5 33.1421 0.5 29V8C0.5 3.85786 3.85786 0.5 8 0.5Z" stroke="#4B5563"/>
<defs>
<clipPath id="clip0_1004_12707">
<rect width="16" height="16" fill="white" transform="translate(12 10.5)"/>
</clipPath>
</defs>
</svg>
